<?xml version="1.0" encoding="UTF-8" standalone="no"?>
<svg
   xmlns:dc="http://purl.org/dc/elements/1.1/"
   xmlns:cc="http://creativecommons.org/ns#"
   xmlns:rdf="http://www.w3.org/1999/02/22-rdf-syntax-ns#"
   xmlns:svg="http://www.w3.org/2000/svg"
   xmlns="http://www.w3.org/2000/svg"
   id="svg47"
   version="1.1"
   width="512"
   viewBox="0 0 64 64"
   height="512">
  <metadata
     id="metadata53">
    <rdf:RDF>
      <cc:Work
         rdf:about="">
        <dc:format>image/svg+xml</dc:format>
        <dc:type
           rdf:resource="http://purl.org/dc/dcmitype/StillImage" />
      </cc:Work>
    </rdf:RDF>
  </metadata>
  <defs
     id="defs51" />
  <g
     data-name="Cloudy Night"
     id="Cloudy_Night">
    <path
       id="path2"
       fill="#ffa733"
       d="m51.3 42.58a22.059 22.059 0 0 1 -14.33 10.86 21.767 21.767 0 0 1 -2.46.42 23.031 23.031 0 0 1 -2.51.14 22 22 0 0 1 -4.3-43.58 22.016 22.016 0 0 0 19.3 32.58 21.773 21.773 0 0 0 4.3-.42z" />
    <path
       id="path4"
       fill="#ff9811"
       d="m36.97 53.44a21.767 21.767 0 0 1 -2.46.42 4.98 4.98 0 0 0 -4.51-2.86h-3.29a6.908 6.908 0 0 0 .29-2 7 7 0 0 0 -7-7 6.9 6.9 0 0 0 -3.82 1.14c.03-.04.05-.08.08-.12a6.994 6.994 0 0 1 12.45 5.98h3.29a4.98 4.98 0 0 1 4.51 2.86 4.728 4.728 0 0 1 .46 1.58z" />
    <path
       id="path6"
       fill="#d1d3d4"
       d="m58 11a3 3 0 0 1 0 6h-14a3 3 0 0 1 0-6h2.28a1.984 1.984 0 0 1 1.72-3 2.058 2.058 0 0 1 1.07.31 3.993 3.993 0 1 1 7.38 2.69z" />
    <path
       id="path8"
       fill="#e6e7e8"
       d="m34.51 53.86a4.98 4.98 0 0 0 -4.51-2.86h-3.29a6.908 6.908 0 0 0 .29-2 6.988 6.988 0 0 0 -12.74-3.98 6.886 6.886 0 0 0 -1.03 2.25 2.983 2.983 0 0 0 -4.05 3.73h-1.18a5 5 0 0 0 0 10h22a5 5 0 0 0 5-5 4.806 4.806 0 0 0 -.49-2.14z" />
    <path
       id="path10"
       d="m51.1 41.6a21.017 21.017 0 0 1 -22.523-30.7 1 1 0 0 0 -1.071-1.461 23.044 23.044 0 0 0 -18.506 22.561 22.8 22.8 0 0 0 4.063 13.035 8.01 8.01 0 0 0 -.49 1.007 3.915 3.915 0 0 0 -.573-.042 4 4 0 0 0 -4 4 6 6 0 0 0 0 12h22a5.983 5.983 0 0 0 5.848-7.323 23.079 23.079 0 0 0 16.328-11.614 1 1 0 0 0 -1.076-1.463zm-21.1 18.4h-22a4 4 0 0 1 0-8h1.184a1 1 0 0 0 .942-1.333 1.973 1.973 0 0 1 1.874-2.667 2 2 0 0 1 .815.179 1 1 0 0 0 1.379-.665 6 6 0 1 1 11.554 3.2 1 1 0 0 0 .958 1.286h3.294a4 4 0 0 1 0 8zm5.051-7.226a6 6 0 0 0 -5.051-2.774h-2.063a7.982 7.982 0 0 0 -13.59-6.633 20.808 20.808 0 0 1 -3.347-11.367 21.051 21.051 0 0 1 14.864-20.09 23.016 23.016 0 0 0 21.136 32.09c.78 0 1.555-.038 2.318-.114a21.043 21.043 0 0 1 -14.267 8.888z" />
    <path
       id="path12"
       d="m22 50h2v2h-2z" />
    <path
       id="path14"
       d="m18 50h2v2h-2z" />
    <path
       id="path16"
       d="m44 18h14a4 4 0 0 0 0-8h-.1a4.85 4.85 0 0 0 .1-1 5 5 0 0 0 -9.587-1.971 3 3 0 0 0 -3.413 2.971h-1a4 4 0 0 0 0 8zm0-6h2.277a1 1 0 0 0 .865-1.5.984.984 0 0 1 -.142-.5 1.017 1.017 0 0 1 1.533-.841 1 1 0 0 0 1.522-.673 2.994 2.994 0 0 1 5.945.514 2.946 2.946 0 0 1 -.419 1.5 1 1 0 0 0 .864 1.5h1.555a2 2 0 0 1 0 4h-14a2 2 0 0 1 0-4z" />
    <path
       id="path18"
       d="m2 2h2v2h-2z" />
    <path
       id="path20"
       d="m6 2h2v2h-2z" />
    <path
       id="path22"
       d="m10 2h2v2h-2z" />
    <path
       id="path24"
       d="m46 20h2v2h-2z" />
    <path
       id="path26"
       d="m50 20h2v2h-2z" />
    <path
       id="path28"
       d="m54 20h2v2h-2z" />
    <path
       id="path30"
       d="m58 20h2v2h-2z" />
    <path
       id="path32"
       d="m60 55h-2v2h-2v2h2v2h2v-2h2v-2h-2z" />
    <path
       id="path34"
       d="m41 32h2v-2h2v-2h-2v-2h-2v2h-2v2h2z" />
    <path
       id="path36"
       d="m14 2h2v2h-2z" />
    <path
       id="path38"
       d="m7 14h2v-2h2v-2h-2v-2h-2v2h-2v2h2z" />
    <path
       id="path40"
       d="m4 34h2v2h-2z" />
    <path
       id="path42"
       d="m55 33h2v2h-2z" />
    <path
       id="path44"
       d="m58 46h2v2h-2z" />
  </g>
</svg>
