<?xml version="1.0" encoding="UTF-8" standalone="no"?>
<svg
   xmlns:dc="http://purl.org/dc/elements/1.1/"
   xmlns:cc="http://creativecommons.org/ns#"
   xmlns:rdf="http://www.w3.org/1999/02/22-rdf-syntax-ns#"
   xmlns:svg="http://www.w3.org/2000/svg"
   xmlns="http://www.w3.org/2000/svg"
   version="1.1"
   width="512"
   viewBox="0 0 64 64"
   height="512"
   enable-background="new 0 0 64 64"
   id="Layer_3">
  <metadata
     id="metadata27">
    <rdf:RDF>
      <cc:Work
         rdf:about="">
        <dc:format>image/svg+xml</dc:format>
        <dc:type
           rdf:resource="http://purl.org/dc/dcmitype/StillImage" />
      </cc:Work>
    </rdf:RDF>
  </metadata>
  <defs
     id="defs25" />
  <path
     id="path2"
     fill="#4d5d7a"
     d="m55 30c3.866 0 7-3.134 7-7s-3.134-7-7-7c-.36 0-.71.036-1.056.088-.453-3.988-3.835-7.088-7.944-7.088-1.012 0-1.976.195-2.866.538-1.772-4.416-6.085-7.538-11.134-7.538s-9.362 3.122-11.134 7.538c-.89-.343-1.854-.538-2.866-.538-4.109 0-7.491 3.1-7.944 7.088-.346-.052-.696-.088-1.056-.088-3.866 0-7 3.134-7 7s3.134 7 7 7z" />
  <g
     id="g16"
     fill="#8892a0">
    <path
       id="path4"
       d="m20 24c13.95 0 25.746-5.946 29.637-14.123-1.091-.559-2.326-.877-3.637-.877-1.012 0-1.976.195-2.866.538-1.772-4.416-6.085-7.538-11.134-7.538s-9.362 3.122-11.134 7.538c-.89-.343-1.854-.538-2.866-.538-4.109 0-7.491 3.1-7.944 7.088-.346-.052-.696-.088-1.056-.088-2.982 0-5.521 1.867-6.53 4.494 4.987 2.21 11.023 3.506 17.53 3.506z" />
    <path
       id="path6"
       d="m27 41c0 1.71-1.431 3.086-3.161 2.996-1.623-.085-2.839-1.541-2.839-3.166 0-1.198.325-2.373.942-3.4l2.058-3.43 2.058 3.431c.617 1.027.942 2.202.942 3.399z" />
    <path
       id="path8"
       d="m35 48c0 1.71-1.431 3.086-3.161 2.996-1.623-.085-2.839-1.541-2.839-3.166 0-1.198.325-2.373.942-3.4l2.058-3.43 2.058 3.431c.617 1.027.942 2.202.942 3.399z" />
    <path
       id="path10"
       d="m27 55c0 1.71-1.431 3.086-3.161 2.996-1.623-.085-2.839-1.541-2.839-3.166 0-1.198.325-2.373.942-3.4l2.058-3.43 2.058 3.431c.617 1.027.942 2.202.942 3.399z" />
    <path
       id="path12"
       d="m43 41c0 1.71-1.431 3.086-3.161 2.996-1.623-.085-2.839-1.541-2.839-3.166 0-1.198.325-2.373.942-3.4l2.058-3.43 2.058 3.431c.617 1.027.942 2.202.942 3.399z" />
    <path
       id="path14"
       d="m43 55c0 1.71-1.431 3.086-3.161 2.996-1.623-.085-2.839-1.541-2.839-3.166 0-1.198.325-2.373.942-3.4l2.058-3.43 2.058 3.431c.617 1.027.942 2.202.942 3.399z" />
  </g>
  <path
     id="path18"
     fill="#c7e2fc"
     d="m18.707 49.707-1.414-1.414-3.707 3.707h-1.586v-1.586l3.707-3.707-1.414-1.414-2.293 2.293v-3.586h-2v3.586l-2.293-2.293-1.414 1.414 3.707 3.707v1.586h-1.586l-3.707-3.707-1.414 1.414 2.293 2.293h-3.586v2h3.586l-2.293 2.293 1.414 1.414 3.707-3.707h1.586v1.586l-3.707 3.707 1.414 1.414 2.293-2.293v3.586h2v-3.586l2.293 2.293 1.414-1.414-3.707-3.707v-1.586h1.586l3.707 3.707 1.414-1.414-2.293-2.293h3.586v-2h-3.586z" />
  <path
     id="path20"
     fill="#c7e2fc"
     d="m62 41h-3.586l2.293-2.293-1.414-1.414-3.707 3.707h-1.586v-1.586l3.707-3.707-1.414-1.414-2.293 2.293v-3.586h-2v3.586l-2.293-2.293-1.414 1.414 3.707 3.707v1.586h-1.586l-3.707-3.707-1.414 1.414 2.293 2.293h-3.586v2h3.586l-2.293 2.293 1.414 1.414 3.707-3.707h1.586v1.586l-3.707 3.707 1.414 1.414 2.293-2.293v3.586h2v-3.586l2.293 2.293 1.414-1.414-3.707-3.707v-1.586h1.586l3.707 3.707 1.414-1.414-2.293-2.293h3.586z" />
</svg>
