<?xml version="1.0" encoding="UTF-8" standalone="no"?>
<svg
   xmlns:dc="http://purl.org/dc/elements/1.1/"
   xmlns:cc="http://creativecommons.org/ns#"
   xmlns:rdf="http://www.w3.org/1999/02/22-rdf-syntax-ns#"
   xmlns:svg="http://www.w3.org/2000/svg"
   xmlns="http://www.w3.org/2000/svg"
   version="1.1"
   width="512"
   viewBox="0 0 64 64"
   height="512"
   enable-background="new 0 0 64 64"
   id="Layer_3">
  <metadata
     id="metadata25">
    <rdf:RDF>
      <cc:Work
         rdf:about="">
        <dc:format>image/svg+xml</dc:format>
        <dc:type
           rdf:resource="http://purl.org/dc/dcmitype/StillImage" />
      </cc:Work>
    </rdf:RDF>
  </metadata>
  <defs
     id="defs23" />
  <path
     id="path2"
     fill="#a1cdfb"
     d="m59.94 26.96c1.272-1.268 2.06-3.022 2.06-4.96 0-3.866-3.134-7-7-7-.36 0-.71.036-1.055.088.032-.359.055-.721.055-1.088 0-6.627-5.373-12-12-12-4.176 0-7.851 2.136-10 5.372-2.149-3.236-5.824-5.372-10-5.372-6.627 0-12 5.373-12 12 0 .367.023.729.055 1.088-.345-.052-.695-.088-1.055-.088-3.866 0-7 3.134-7 7s3.134 7 7 7c3.108 0 5.739-2.027 6.653-4.829 1.842 1.152 4.013 1.829 6.347 1.829.49 0 .971-.035 1.445-.092.212.262.435.514.67.756" />
  <path
     id="path4"
     fill="#ebf7fe"
     d="m57 26c-.359 0-.707.041-1.045.113-.445-4.554-4.284-8.113-8.955-8.113s-8.51 3.559-8.955 8.113c-.338-.072-.686-.113-1.045-.113-2.761 0-5 2.239-5 5s2.239 5 5 5c1.717 0 3.231-.867 4.131-2.186 1.576 1.359 3.624 2.186 5.869 2.186s4.293-.827 5.869-2.186c.9 1.319 2.414 2.186 4.131 2.186 2.761 0 5-2.239 5-5s-2.239-5-5-5z" />
  <path
     id="path6"
     fill="#c7e2fc"
     d="m42 30c-.359 0-.707.041-1.045.113-.445-4.554-4.284-8.113-8.955-8.113s-8.51 3.559-8.955 8.113c-.338-.072-.686-.113-1.045-.113-2.761 0-5 2.239-5 5s2.239 5 5 5c1.717 0 3.231-.867 4.131-2.186 1.576 1.359 3.624 2.186 5.869 2.186s4.293-.827 5.869-2.186c.9 1.319 2.414 2.186 4.131 2.186 2.761 0 5-2.239 5-5s-2.239-5-5-5z" />
  <g
     id="g18"
     fill="#a1cdfb">
    <circle
       id="circle8"
       r="5"
       cy="57"
       cx="7" />
    <circle
       id="circle10"
       r="5"
       cy="57"
       cx="28" />
    <circle
       id="circle12"
       r="5"
       cy="57"
       cx="48" />
    <circle
       id="circle14"
       r="3"
       cy="48"
       cx="18" />
    <circle
       id="circle16"
       r="3"
       cy="48"
       cx="38" />
  </g>
</svg>
