<?xml version="1.0" encoding="UTF-8" standalone="no"?>
<svg
   xmlns:dc="http://purl.org/dc/elements/1.1/"
   xmlns:cc="http://creativecommons.org/ns#"
   xmlns:rdf="http://www.w3.org/1999/02/22-rdf-syntax-ns#"
   xmlns:svg="http://www.w3.org/2000/svg"
   xmlns="http://www.w3.org/2000/svg"
   version="1.1"
   width="512"
   viewBox="0 0 64 64"
   height="512"
   enable-background="new 0 0 64 64"
   id="Layer_3">
  <metadata
     id="metadata29">
    <rdf:RDF>
      <cc:Work
         rdf:about="">
        <dc:format>image/svg+xml</dc:format>
        <dc:type
           rdf:resource="http://purl.org/dc/dcmitype/StillImage" />
      </cc:Work>
    </rdf:RDF>
  </metadata>
  <defs
     id="defs27" />
  <g
     id="g12"
     fill="#8892a0">
    <path
       id="path2"
       d="m30 56c-2.757 0-5-2.243-5-5s2.243-5 5-5h16v2h-16c-1.654 0-3 1.346-3 3s1.346 3 3 3z" />
    <path
       id="path4"
       d="m20 26h-18v-2h18c1.654 0 3-1.346 3-3s-1.346-3-3-3-3 1.346-3 3h-2c0-2.757 2.243-5 5-5s5 2.243 5 5-2.243 5-5 5z" />
    <path
       id="path6"
       d="m20 62h-18v-2h18c1.654 0 3-1.346 3-3s-1.346-3-3-3-3 1.346-3 3h-2c0-2.757 2.243-5 5-5s5 2.243 5 5-2.243 5-5 5z" />
    <path
       id="path8"
       d="m34 30h-32v-2h32c2.757 0 5-2.243 5-5s-2.243-5-5-5-5 2.243-5 5h-2c0-3.86 3.14-7 7-7s7 3.14 7 7-3.14 7-7 7z" />
    <path
       id="path10"
       d="m20 42c-2.757 0-5-2.243-5-5h2c0 1.654 1.346 3 3 3s3-1.346 3-3-1.346-3-3-3h-18v-2h18c2.757 0 5 2.243 5 5s-2.243 5-5 5z" />
  </g>
  <path
     id="path14"
     fill="#4d5d7a"
     d="m53 57h-2c-.265 0-.52-.105-.707-.293l-9-9c-.391-.391-.391-1.023 0-1.414l9-9c.187-.188.442-.293.707-.293h2v2h-1.586l-8 8 8 8h1.586z" />
  <path
     id="path16"
     fill="#2b74ca"
     d="m63 52c-2.761 0-5 2.239-5 5s2.239 5 5 5c-8.284 0-15-6.716-15-15s6.716-15 15-15c-2.761 0-5 2.239-5 5s2.239 5 5 5c-2.761 0-5 2.239-5 5s2.239 5 5 5z" />
  <path
     id="path18"
     fill="#3d98f7"
     d="m56.846 33.331c-5.212 2.35-8.846 7.58-8.846 13.669 0 2.22.495 4.32 1.36 6.216 4.567-3.48 7.64-9.877 7.64-17.216 0-.907-.063-1.794-.154-2.669z" />
  <path
     id="path20"
     fill="#c7e2fc"
     d="m18 14c2.209 0 4-1.791 4-4s-1.791-4-4-4c-.75 0-1.443.219-2.043.578-.217-2.561-2.34-4.578-4.957-4.578-2.761 0-5 2.239-5 5 0 .43.071.841.173 1.239-.36-.154-.756-.239-1.173-.239-1.657 0-3 1.343-3 3s1.343 3 3 3z" />
  <path
     id="path22"
     fill="#c7e2fc"
     d="m58 14c2.209 0 4-1.791 4-4s-1.791-4-4-4c-.75 0-1.443.219-2.043.578-.217-2.561-2.34-4.578-4.957-4.578-2.761 0-5 2.239-5 5 0 .43.071.841.173 1.239-.36-.154-.756-.239-1.173-.239-1.657 0-3 1.343-3 3s1.343 3 3 3z" />
</svg>
